<svg xmlns="http://www.w3.org/2000/svg" shape-rendering="geometricPrecision" text-rendering="geometricPrecision" image-rendering="optimizeQuality" fill-rule="evenodd" clip-rule="evenodd" viewBox="0 0 512 439.555"><path fill="#E30713" d="M255.737 0c45.303 0 81.917 43.752 81.917 97.742 0 49.853-33.493 109.536-76.427 113.025l12.61 19.085c4.964 8.586 2.173 10.964-6.309 10.964h-27.704c-6.104-.089-5.662-6.17-3.014-10.446l12.471-18.891c-43.156-2.215-75.667-63.78-75.667-113.737C173.614 43.752 210.331 0 255.53 0h.207z"/><path fill="#fff" fill-rule="nonzero" d="M270.512 32.548a4.68 4.68 0 014.433-8.243c7.841 4.22 15.697 10.5 22.534 17.579 7.055 7.307 13.081 15.536 16.932 23.295a4.678 4.678 0 01-8.389 4.139c-3.425-6.9-8.864-14.303-15.284-20.951-6.187-6.407-13.243-12.061-20.226-15.819z"/><path fill="#3BAA34" d="M480.667 71.11c37.084 26.021 41.924 82.866 10.912 127.062-28.636 40.808-90.333 70.425-127.482 48.62l-.641 22.866c-.867 9.879-4.519 10.223-11.461 5.351l-4.234-2.971-10.922-7.664-7.281-5.109-.242-.17c-4.945-3.579-1.09-8.302 3.533-10.282l21.06-8.3c-34.054-26.602-25.305-95.672 3.391-136.566 31.011-44.195 86.198-58.919 123.197-32.956l.17.119z"/><path fill="#fff" fill-rule="nonzero" d="M474.072 106.227a4.67 4.67 0 012.088-6.265 4.67 4.67 0 016.264 2.089c3.996 7.962 6.821 17.611 8.349 27.324 1.583 10.06 1.794 20.251.495 28.771a4.685 4.685 0 11-9.267-1.392c1.166-7.656.971-16.847-.46-25.95-1.386-8.812-3.915-17.497-7.469-24.577z"/><path fill="#FF5023" d="M31.333 71.11c-37.084 26.021-41.924 82.866-10.912 127.062 28.636 40.808 90.333 70.425 127.482 48.62l.641 22.866c.867 9.879 4.519 10.223 11.461 5.351l4.234-2.971 10.922-7.664 7.281-5.109.242-.17c4.945-3.579 1.09-8.302-3.533-10.282l-21.06-8.3c34.054-26.602 25.305-95.672-3.391-136.566-31.011-44.195-86.198-58.919-123.197-32.956l-.17.119z"/><path fill="#fff" fill-rule="nonzero" d="M29.576 102.051a4.67 4.67 0 016.264-2.089 4.67 4.67 0 012.088 6.265c-3.554 7.08-6.083 15.765-7.469 24.577-1.431 9.103-1.626 18.294-.46 25.95a4.686 4.686 0 11-9.267 1.392c-1.299-8.52-1.088-18.711.495-28.771 1.528-9.713 4.353-19.362 8.349-27.324z"/><path fill="#1A1A1A" fill-rule="nonzero" d="M237.053 217.965c1.625-.541 3.175-1.264 4.804-2.137-3.684-1.615-7.312-3.09-11.634-4.09-1.566-.361-3.102-.598-4.425-.604-1.087-.003-2.016.134-2.624.481-.43.245-.77.736-.959 1.552a6.893 6.893 0 00-.174 1.535c-.003.756.099 1.421.291 1.995.316.951.957 1.586 1.778 1.976 1.143.541 2.667.767 4.328.774 2.887.012 6.041-.623 8.615-1.482zm29.43 7.112c-3.339-1.113-6.045-2.567-9.117-4.351 3.826 19.534 9.253 53.99 11.557 99.012 1.646 32.149 1.708 69.673-1.528 110.965a4.342 4.342 0 01-8.658-.645c3.21-40.973 3.155-78.111 1.528-109.878-2.328-45.489-7.866-80.003-11.649-99.02-2.77 1.586-5.301 2.896-8.366 3.917-3.457 1.154-7.775 2.006-11.847 1.99-3.072-.013-6.052-.509-8.567-1.702-2.834-1.343-5.012-3.458-6.051-6.576-.398-1.191-.612-2.551-.605-4.087.004-1.135.114-2.133.314-2.999.699-3.025 2.42-5.102 4.781-6.453 2.188-1.249 4.8-1.745 7.558-1.734 2.219.008 4.504.338 6.683.841 5.958 1.379 10.498 3.394 15.322 5.534 1.518.675 3.071 1.365 4.714 2.048.286.123.56.271.816.446.255-.173.531-.319.818-.438a264.125 264.125 0 004.711-2.056c4.823-2.14 9.363-4.155 15.321-5.534 2.179-.503 4.464-.833 6.683-.841 2.758-.011 5.371.485 7.558 1.734 2.361 1.352 4.082 3.428 4.781 6.453.2.866.31 1.864.314 2.999.007 1.534-.207 2.894-.605 4.087-1.041 3.12-3.219 5.234-6.053 6.576-2.515 1.191-5.498 1.689-8.57 1.7-4.07.017-8.386-.834-11.843-1.988zm-1.605-9.249c1.628.873 3.177 1.595 4.802 2.137 2.572.859 5.725 1.493 8.612 1.481 1.661-.006 3.188-.234 4.329-.773.823-.39 1.463-1.025 1.781-1.976.19-.574.294-1.239.291-1.995a6.834 6.834 0 00-.175-1.535c-.188-.816-.528-1.307-.958-1.552-.608-.347-1.537-.484-2.624-.481-1.323.006-2.859.243-4.425.604-4.322 1-7.951 2.475-11.633 4.09z"/><path fill="#1A1A1A" fill-rule="nonzero" d="M347.872 238.675c.997.227 1.999.37 3.044.464-1.726-2.413-3.529-4.736-5.881-7.027-.912-.887-1.872-1.689-2.81-2.263-.683-.416-1.283-.683-1.706-.693-.222-.005-.512.147-.875.52l-.078.077a5.725 5.725 0 00-.639.866c-.306.5-.504.972-.602 1.412a2.26 2.26 0 00.335 1.802c.518.787 1.446 1.547 2.569 2.234 2.032 1.242 4.495 2.137 6.636 2.621l.007-.013zm13.291 12.696c-22.198 24.275-36.057 57.755-50.418 92.459-13.331 32.21-27.091 65.459-48.411 93.98a4.342 4.342 0 01-6.96-5.195c20.723-27.721 34.252-60.41 47.358-92.078 14.355-34.689 28.219-68.181 50.554-93.372-2.206-.091-4.264-.291-6.482-.795l.002-.015c-3.104-.703-6.695-2.011-9.683-3.839-2.291-1.403-4.308-3.14-5.672-5.21-1.542-2.338-2.227-4.958-1.579-7.815.248-1.098.71-2.227 1.417-3.382a12.29 12.29 0 011.48-1.969l.141-.153c1.965-2.015 4.29-2.816 6.789-2.752 2.298.058 4.536.886 6.632 2.166 1.619.991 3.173 2.272 4.59 3.652 3.739 3.641 6.16 7.121 8.734 10.818.624.897 1.262 1.814 2.521 3.536.087.12.168.245.243.373a4.9 4.9 0 01.498.059c1.121.167 2.691.369 4.222.565 4.426.566 8.596 1.1 13.654 2.763 1.889.621 3.749 1.405 5.367 2.377 2.093 1.259 3.851 2.849 4.953 4.833l.006.011c1.191 2.13 1.544 4.519.677 7.162-.248.756-.62 1.555-1.125 2.396-.698 1.162-1.492 2.099-2.355 2.834-2.273 1.929-4.959 2.546-7.795 2.255-2.481-.254-4.967-1.242-7.278-2.63-3.028-1.817-5.846-4.387-7.888-6.793-1.696-1.996-2.931-3.984-4.192-6.241zm8.852-.714a23.252 23.252 0 001.883 2.584c1.437 1.691 3.371 3.471 5.39 4.682 1.121.674 2.213 1.142 3.137 1.237a2.099 2.099 0 001.621-.498c.335-.286.659-.675.958-1.174.225-.375.396-.742.512-1.097.171-.525.159-.894.022-1.142-.212-.392-.735-.81-1.422-1.223-.954-.573-2.106-1.055-3.304-1.448-3.009-.988-5.873-1.509-8.797-1.921z"/><path fill="#1A1A1A" fill-rule="nonzero" d="M140.188 253.339a22.91 22.91 0 001.863-2.616c-2.874.435-5.711.984-8.772 2.019-1.214.411-2.367.902-3.292 1.47-.689.421-1.209.848-1.423 1.243-.136.249-.143.622.036 1.152.115.342.29.708.524 1.09.315.515.637.9.959 1.168.482.402 1.046.529 1.63.464.923-.103 2.007-.578 3.114-1.257 2.026-1.24 3.947-3.036 5.361-4.733zm25.034-7.109c-2.246.531-4.299.754-6.479.867 21.454 22.524 37.512 54.559 54.485 88.424 16.572 33.066 34.039 67.914 58.127 96.771a4.34 4.34 0 01-6.654 5.568c-24.676-29.563-42.397-64.919-59.213-98.469-17.091-34.1-33.235-66.306-54.617-87.96-1.225 2.233-2.435 4.211-4.109 6.22-2.026 2.431-4.816 5.026-7.81 6.86-2.307 1.414-4.789 2.426-7.268 2.704-2.817.315-5.506-.283-7.81-2.203-.888-.74-1.695-1.67-2.392-2.809a11.836 11.836 0 01-1.141-2.388c-.891-2.627-.56-5.017.605-7.161 1.087-1.996 2.832-3.603 4.917-4.881 1.631-1 3.478-1.802 5.339-2.432 4.95-1.675 9.168-2.255 13.646-2.868 1.262-.173 2.556-.35 4.284-.627.142-.023.285-.038.427-.048.076-.131.157-.257.246-.379.683-.959 1.588-2.283 2.464-3.566 2.508-3.673 4.872-7.134 8.648-10.879 1.42-1.407 2.964-2.708 4.554-3.701 2.09-1.302 4.326-2.153 6.625-2.232 2.498-.087 4.834.697 6.823 2.703l.253.287c.497.537.96 1.144 1.384 1.822.709 1.135 1.179 2.264 1.44 3.372.673 2.85.016 5.471-1.498 7.811-1.349 2.084-3.349 3.843-5.628 5.264-2.983 1.862-6.56 3.201-9.648 3.93zm-4.159-7.18a22.424 22.424 0 003.008-.48c2.143-.506 4.602-1.421 6.613-2.675 1.117-.697 2.038-1.465 2.549-2.254.344-.533.491-1.146.331-1.825-.099-.424-.303-.894-.621-1.403a6.222 6.222 0 00-.556-.77l-.174-.163c-.361-.365-.649-.511-.87-.504-.421.014-1.013.284-1.686.703-.953.596-1.904 1.399-2.792 2.28-2.286 2.267-4.076 4.626-5.802 7.091z"/></svg>